<svg width="32" height="32" viewBox="0 0 32 32" fill="none" xmlns="http://www.w3.org/2000/svg">
<path d="M8.65007 1.70231C8.33479 1.70231 8.07966 1.95798 8.07966 2.27326V16.3124H6.89261C6.57733 16.3124 6.3222 16.5681 6.3222 16.8834V19.5223C6.3222 19.8375 6.57733 20.0932 6.89261 20.0932H8.47177L14.9954 24.6003L8.32551 29.2083C8.06638 29.3877 8.00128 29.7431 8.18021 30.0025C8.29096 30.1631 8.46927 30.2493 8.65035 30.2493C8.76172 30.2493 8.87494 30.2165 8.97396 30.1483L16.0002 25.2942L23.0261 30.148C23.1251 30.2162 23.2377 30.2489 23.3497 30.2489C23.5308 30.2489 23.7091 30.1628 23.8198 30.0022C23.9987 29.7428 23.9333 29.3871 23.6745 29.208L17.0046 24.6L23.5283 20.0929H25.1074C25.4227 20.0929 25.6778 19.8372 25.6778 19.522V16.8831C25.6778 16.5678 25.4227 16.3121 25.1074 16.3121H23.9204L23.9207 12.325V2.2731C23.9207 1.95783 23.6656 1.70215 23.3503 1.70215C23.035 1.70215 22.7799 1.95783 22.7799 2.2731V3.49805C18.3318 4.42783 13.6679 4.42751 9.22008 3.49805V2.2731C9.22008 1.95783 8.96496 1.70215 8.64968 1.70215L8.65007 1.70231ZM16.0002 23.9065L10.4809 20.0936H21.5191L16.0002 23.9065ZM24.5372 18.9517H7.46309V17.4546H24.5372V18.9517ZM9.22026 16.3128V13.0177C11.4464 13.4666 13.7221 13.7029 16.0003 13.7029C18.2782 13.7029 20.5536 13.4663 22.7797 13.0177V16.3128H9.22026ZM22.78 4.67353V11.8643C18.3334 12.794 13.6657 12.794 9.22026 11.8643V4.67353C13.6703 5.57059 18.3283 5.57059 22.78 4.67353Z" fill="white"/>
</svg>
