<svg width="32" height="32" viewBox="0 0 32 32" fill="none" xmlns="http://www.w3.org/2000/svg">
<path d="M2.59845 14.743L2.59857 28.7294C2.59857 29.0816 2.88691 29.3697 3.23937 29.3697H3.25867C3.61113 29.3697 3.89948 29.0816 3.89948 28.7294V28.0569H7.50774L11.962 29.2545C13.1285 29.5683 14.3206 29.7219 15.5126 29.7219C16.8647 29.7219 18.2236 29.5169 19.531 29.1199L30.0158 25.8988C30.3106 25.809 30.5029 25.5144 30.4646 25.2073C30.3235 24.061 29.7403 23.0363 28.8237 22.3255C27.9072 21.6147 26.7729 21.3072 25.6192 21.4482L20.114 22.1462C20.5627 21.5059 20.8318 20.7246 20.8318 19.8857C20.8318 19.5335 20.5434 19.2454 20.191 19.2454H18.3707V15.0379C18.9155 15.1532 19.6652 15.2748 20.5048 15.2748C21.652 15.2748 22.9465 15.0508 24.0425 14.3013C26.651 12.5082 26.9907 8.49935 27.0035 8.32651C27.0293 8.03195 26.8498 7.76285 26.5676 7.6669C26.4075 7.6157 22.6646 6.386 20.0496 8.18553C19.3447 8.66583 18.8128 9.31259 18.4024 9.99792C18.4472 8.7682 18.3319 5.93785 16.6015 4.15091C14.3775 1.85822 10.4745 2.30662 10.308 2.32563C10.0132 2.36395 9.7825 2.59473 9.75031 2.88928C9.73099 3.05573 9.30155 7.05845 11.5129 9.33824C13.0895 10.9649 15.5119 11.2147 16.845 11.2147C16.9349 11.2147 17.0052 11.2147 17.0886 11.2083V19.2389H15.3389C14.5442 19.2389 13.788 18.9956 13.1407 18.541L11.1027 17.1001C10.2374 16.4917 9.22479 16.1652 8.16099 16.1652H3.89908V14.7372C3.89908 14.385 3.61074 14.0969 3.25828 14.0969L3.23925 14.0964C2.8868 14.1028 2.59845 14.3909 2.59845 14.7431L2.59845 14.743ZM20.7747 9.24201C22.3704 8.14685 24.652 8.5055 25.6584 8.74241C25.4854 9.78638 24.9277 12.1303 23.3192 13.238C21.7235 14.3332 19.4419 13.9682 18.4355 13.7376C18.6085 12.6937 19.1594 10.3498 20.7747 9.24201ZM12.4302 8.45431C11.0587 7.03913 10.9625 4.63762 10.9882 3.57436C12.0137 3.54863 14.321 3.65772 15.6732 5.05363C17.0447 6.46881 17.1409 8.87032 17.1152 9.93358C16.09 9.95931 13.7827 9.85049 12.4302 8.45431ZM3.89968 17.4586H8.16159C8.95635 17.4586 9.71251 17.702 10.3598 18.1566L12.3978 19.5975C13.2632 20.2059 14.2757 20.5324 15.3395 20.5324H19.4732C19.2361 21.493 18.4735 22.2485 17.5058 22.4855L16.8263 22.5688H11.0454C10.6929 22.5688 10.4046 22.857 10.4046 23.2091C10.4046 23.5613 10.6929 23.8494 11.0454 23.8494H16.8711C17.1852 23.8494 17.4929 23.8111 17.7877 23.7406L25.7861 22.7224C26.5937 22.6136 27.3947 22.8376 28.0419 23.3372C28.5419 23.7278 28.9073 24.2531 29.0867 24.8486L19.1595 27.8969C16.9291 28.5822 14.5579 28.627 12.3019 28.0186L7.76445 26.8018C7.71322 26.7889 7.65555 26.7825 7.59788 26.7825H3.90618L3.90645 17.4584L3.89968 17.4586Z" fill="white"/>
</svg>
