<svg width="131" height="105" viewBox="0 0 131 105" fill="none" xmlns="http://www.w3.org/2000/svg">
<path fill-rule="evenodd" clip-rule="evenodd" d="M121.988 39.5761C121.852 38.9325 121.24 38.3258 120.193 38.5213C112.182 40.0138 105.969 39.7247 100.779 39.4833C94.1264 39.1737 89.1564 38.9424 84.2396 42.644C82.4338 39.5608 80.2611 36.482 78.5693 35.1436C78.2563 34.8961 77.846 34.792 77.4784 34.7668C75.1229 31.9288 72.1154 31.6923 69.9907 32.4113C66.8891 28.996 62.1907 29.2392 59.309 32.4113C57.3093 31.7349 54.2549 31.8373 51.8214 34.7668C51.2994 34.8029 50.9604 34.9657 50.7313 35.1436C49.0387 36.4838 46.867 39.5625 45.0604 42.644C40.1406 38.9384 35.2075 39.1714 28.5777 39.4845C23.3934 39.7294 17.1716 40.0233 9.1074 38.5213C8.06348 38.3241 7.44838 38.9317 7.3116 39.5761C6.58489 43.0049 29.2774 60.6742 32.8177 61.5204C35.0783 62.0608 36.6022 61.9257 37.5614 61.731C36.9455 68.1264 41.1715 72.3186 46.0352 75.88C47.3139 76.8166 49.2153 77.1249 51.2332 77.4521C53.1256 77.7589 55.1205 78.0823 56.7998 78.9563C59.7854 80.5163 60.6877 80.987 64.6484 80.987C68.606 80.987 69.5085 80.516 72.4915 78.9591L72.497 78.9563C74.1805 78.0781 76.1143 77.7795 77.9626 77.4941C79.9737 77.1836 81.8836 76.8887 83.2601 75.88C88.1239 72.3195 92.3514 68.1279 91.7338 61.731C92.8054 61.9484 94.3527 62.0298 96.4776 61.5204C100.717 60.5092 122.637 42.6185 121.986 39.5761H121.988ZM71.2147 56.5859C71.62 55.0318 72.1965 53.4155 72.8427 52.7719C73.3311 52.2844 81.8855 45.577 86.8473 51.7649C88.2814 53.5565 88.8873 55.5798 89.0316 56.6152C87.7871 56.3094 86.6867 55.92 85.6282 55.5454C81.8452 54.2067 78.5965 53.057 71.2147 56.5859ZM69.262 61.3037C69.2738 60.827 69.1227 60.4183 68.9104 60.0802L68.9524 60.0721C69.0648 60.0506 69.1762 60.0293 69.2822 60.0046C69.518 60.0609 69.951 60.7926 69.262 61.3037ZM67.3001 62.6606C66.8444 63.1439 65.3272 63.227 64.6508 63.227C63.9737 63.227 62.4564 63.1456 62.0008 62.6606C60.6078 61.1845 61.5023 60.452 61.9538 60.2681C62.892 60.3327 66.4097 60.3327 67.3478 60.2681C67.78 60.446 68.7124 61.1651 67.3001 62.6606ZM60.0396 61.3037C59.4648 60.8765 59.6226 60.0995 60.0203 60.0055C60.1378 60.0323 60.2645 60.0575 60.3921 60.081C60.1789 60.4183 60.0279 60.8262 60.0396 61.3037ZM40.2709 56.6153C40.4161 55.5798 41.0228 53.5558 42.4569 51.765C47.2847 45.7407 55.692 52.0042 56.46 52.7703C57.1028 53.4131 57.681 55.0286 58.0863 56.5843C50.8149 53.108 48.0067 54.082 44.1071 55.4345C42.9677 55.8296 41.7351 56.2571 40.2709 56.6153ZM78.5848 57.1272C79.2762 57.1272 79.8393 57.6903 79.8393 58.3817C79.8393 59.0724 79.2762 59.6338 78.5848 59.6338C77.8941 59.6338 77.3311 59.0724 77.3311 58.3817C77.3311 57.6903 77.8941 57.1272 78.5848 57.1272ZM80.3235 56.6447C81.453 56.7714 82.7293 57.1163 83.9663 57.5099C82.9643 58.7854 81.7525 59.6463 80.3504 60.0828C81.1736 59.2302 81.3766 57.7021 80.3235 56.6447ZM77.1263 60.347C75.5789 60.1741 73.9475 59.6203 72.3733 58.7014C73.5087 58.1626 74.9621 57.5324 76.5011 57.0969C75.7434 58.3179 76.2208 59.6748 77.1263 60.347ZM50.718 59.6337C50.0265 59.6337 49.4634 59.0723 49.4634 58.3817C49.4634 57.6902 50.0265 57.1272 50.718 57.1272C51.4094 57.1272 51.9716 57.6902 51.9716 58.3817C51.9716 59.0723 51.4094 59.6337 50.718 59.6337ZM48.9532 60.0826C47.5493 59.6471 46.3375 58.7845 45.3373 57.5097C46.575 57.1153 47.8514 56.7696 48.9809 56.6437C47.9009 57.7262 48.1577 59.2594 48.9532 60.0826ZM52.8016 57.0953C54.3389 57.5308 55.7924 58.161 56.9294 58.6998C55.3535 59.6212 53.723 60.175 52.1747 60.3454C53.3865 59.4491 53.3588 57.9941 52.8016 57.0953ZM68.4913 57.7137C66.8322 58.0326 62.227 57.9848 60.8096 57.7137C60.5654 56.4676 60.0048 54.0794 59.0734 52.3642C62.8403 51.4151 66.755 51.4906 70.2266 52.365C69.296 54.0794 68.7371 56.4678 68.4913 57.7137ZM54.8265 60.9823C50.8765 63.8229 45.8946 61.1291 44.3974 58.26C47.2606 61.902 51.2819 62.1771 54.8265 60.9823ZM84.9062 58.2618C83.3294 61.2803 78.3122 63.7464 74.4762 60.9814C79.3601 62.6321 82.8469 60.8791 84.9062 58.2618ZM53.3347 36.7382C52.9606 37.276 52.3624 37.3004 52.0275 37.2065C50.1545 38.8388 47.2579 43.3298 45.4412 46.9707C47.4853 46.4471 49.9592 46.6753 52.9759 47.8871C52.9676 44.7075 52.6571 40.1449 52.3541 38.6277C52.1922 37.8179 53.3729 37.5821 53.5332 38.3919C53.8713 40.0828 54.207 45.1355 54.1768 48.4182C55.4086 49.0106 56.5213 49.692 57.3949 50.3986C56.5288 44.5807 56.9065 39.7186 58.5537 35.95C58.881 35.1964 59.9853 35.6789 59.6555 36.4308C58.0108 40.1977 57.7129 45.1713 58.74 51.2049C62.5581 50.2365 66.7465 50.2365 70.5646 51.2049C71.5917 45.1731 71.2938 40.1977 69.6491 36.4308C69.3184 35.673 70.4202 35.1922 70.7509 35.95C72.3965 39.7186 72.7757 44.5816 71.9106 50.3995C72.7823 49.6979 73.8976 49.019 75.1287 48.43C75.0968 45.1472 75.4333 40.0838 75.7715 38.3912C75.9317 37.5873 77.1091 37.8248 76.9505 38.627C76.6475 40.1467 76.3362 44.7209 76.3287 47.9014C79.519 46.6209 81.9275 46.474 83.8634 46.97C82.0484 43.3298 79.1516 38.8378 77.2769 37.2064C76.9798 37.2895 76.3639 37.3038 75.9703 36.7382C74.5194 34.6545 72.1462 33.9287 70.1658 34.934C69.424 35.3116 68.7745 34.7594 68.6394 34.5572C66.5382 31.6083 62.7678 31.6109 60.6649 34.5572C60.2075 35.1983 59.4019 35.0666 59.1384 34.934C57.1629 33.9253 54.7865 34.6537 53.3347 36.7382ZM33.3821 59.1808C30.5097 58.4952 19.5872 49.643 13.6024 43.9869C34.8792 44.2705 35.5338 52.8005 34.0425 56.2865C33.7211 57.0291 34.8523 57.4302 35.146 56.7673C36.2428 54.2599 38.3189 42.7567 12.3531 42.7803C11.7951 42.2281 11.2815 41.707 10.8771 41.2631C18.3002 42.4065 24.03 42.1245 28.7468 41.8923C35.0623 41.5814 39.5619 41.3599 43.8783 44.769C43.0879 46.2586 42.0313 48.7459 42.0297 48.7551C39.0473 51.2877 36.9293 56.7934 38.2593 58.4826C38.2355 58.5567 38.2094 58.6316 38.1834 58.7066L38.1833 58.7067C38.1433 58.8217 38.1033 58.9367 38.0713 59.049C38.0712 59.049 38.0703 59.0494 38.0688 59.0502C38.0676 59.0508 38.066 59.0517 38.064 59.0528C37.9484 59.115 36.4576 59.9173 33.3813 59.1807L33.3821 59.1808ZM81.8443 73.9381C80.7762 74.7193 79.2652 74.9259 77.5343 75.1625C75.6505 75.4201 73.5063 75.7133 71.3892 76.8215C68.5379 78.311 68.0234 78.5787 64.6534 78.5787C61.2841 78.5787 60.77 78.3102 57.9206 76.8223L57.9191 76.8215C55.861 75.7466 53.6724 75.4291 51.7512 75.1504C49.9979 74.8961 48.4674 74.6741 47.4623 73.9381C41.7577 69.76 38.4238 65.5877 40.6183 58.9952C41.2946 58.8534 42.1078 58.5932 43.0853 58.2617C44.6856 62.2519 51.3141 65.642 56.0779 61.5387C54.8543 63.1268 54.0155 64.6179 53.2844 65.9174C52.2085 67.8299 51.3659 69.3275 49.874 70.1091C49.0558 70.5396 49.8303 71.5205 50.432 71.1765C52.2212 70.1517 53.256 68.3724 54.479 66.2696C55.4942 64.5241 56.639 62.5556 58.4527 60.6106C58.3587 61.7544 59.6283 62.6858 60.6419 62.8997C61.6045 64.2558 62.3068 64.4312 64.6531 64.4312C67.0725 64.4312 67.7632 64.1669 68.6626 62.8997C69.8173 62.6564 70.9468 61.7224 70.8536 60.6106C72.54 62.42 73.6889 64.3853 74.7234 66.155C76.0115 68.3585 77.1223 70.2586 78.8726 71.1765C79.4684 71.482 80.2286 70.5303 79.4323 70.1091C77.9304 69.3223 77.1123 67.8615 76.0522 65.9685L76.0522 65.9684C75.3246 64.6693 74.4831 63.1667 73.2284 61.5387C77.915 65.5776 84.5814 62.3518 86.2209 58.2617C87.1994 58.5924 88.0109 58.8533 88.688 58.9943C90.8824 65.5869 87.5484 69.7607 81.8439 73.9379L81.8443 73.9381ZM95.9245 59.1808C92.7339 59.9419 91.2486 59.0608 91.2362 59.0532C91.2042 58.9393 91.1634 58.8215 91.1224 58.7034L91.1223 58.7032C91.0967 58.6292 91.071 58.5551 91.0474 58.4818C92.2407 56.9687 90.5951 51.5756 87.2845 48.7592C87.2812 48.75 86.2188 46.257 85.4283 44.7674C89.7443 41.3593 94.254 41.5802 100.578 41.8898C105.295 42.1208 111.021 42.4012 118.43 41.2615C118.025 41.7054 117.512 42.2265 116.954 42.7786C89.7911 42.7593 93.4754 55.1905 94.1585 56.7673C94.4363 57.406 95.5733 57.0006 95.2603 56.284C94.8836 55.4708 90.8968 44.3335 115.7 43.9879C109.715 49.6455 98.7951 58.4952 95.9226 59.1809L95.9245 59.1808ZM64.6518 68.1606C64.275 68.1606 55.432 68.1791 54.2505 69.755C53.7486 70.4213 54.7909 71.0414 55.2079 70.4817C55.6913 69.9648 59.9214 69.3631 64.6518 69.3631C69.3822 69.3631 73.6115 69.9648 74.0907 70.4758C74.5825 71.127 75.5416 70.4062 75.0541 69.7542C73.8717 68.1774 65.0286 68.1606 64.6518 68.1606ZM55.9841 74.3591C56.6219 72.9677 57.6633 71.9028 64.6518 71.9028C71.6403 71.9028 72.6816 72.9669 73.3194 74.3591C73.6735 75.137 72.544 75.5565 72.2243 74.8592C71.8861 74.1199 71.4213 73.1054 64.6509 73.1054C57.8808 73.1054 57.4166 74.1187 57.0776 74.8589L57.0775 74.8592C56.7552 75.5582 55.6643 75.0606 55.9841 74.3591Z" fill="#F0F0F0"/>
</svg>
