<svg width="32" height="32" viewBox="0 0 32 32" fill="none" xmlns="http://www.w3.org/2000/svg">
<path fill-rule="evenodd" clip-rule="evenodd" d="M15.2359 28.7698H23.5089C24.1862 28.7698 24.8564 28.5456 25.3974 28.1391C26.1062 27.6056 27.0726 27.5857 27.8025 28.0882L28.6559 28.6748C28.7495 28.7388 28.8559 28.7698 28.9614 28.7698C29.1335 28.7698 29.3025 28.688 29.4074 28.5354C29.5764 28.2896 29.5141 27.9529 29.268 27.7839L28.4151 27.1976C27.3009 26.4312 25.8274 26.4624 24.7471 27.275C24.3928 27.5419 23.9529 27.6889 23.5089 27.6889H20.3559C24.8458 25.7121 27.992 21.2266 27.992 16.0143C27.992 8.98045 22.2697 3.25836 15.2361 3.25836C8.20254 3.25836 2.48022 8.98037 2.48022 16.0143C2.48022 23.0482 8.20254 28.7702 15.2361 28.7702L15.2359 28.7698ZM15.2359 4.33928C21.6738 4.33928 26.9106 9.57663 26.9106 16.0139C26.9106 22.4512 21.6735 27.6886 15.2359 27.6886C8.79835 27.6886 3.56129 22.4512 3.56129 16.0139C3.56129 9.57663 8.79835 4.33928 15.2359 4.33928ZM15.236 19.3962C17.1011 19.3962 18.6184 17.8789 18.6184 16.0138C18.6184 14.1486 17.1011 12.6313 15.236 12.6313C13.3708 12.6313 11.8535 14.1486 11.8535 16.0138C11.8535 17.8789 13.3708 19.3962 15.236 19.3962ZM15.236 13.7122C16.5054 13.7122 17.5375 14.7449 17.5375 16.0138C17.5375 17.2829 16.5051 18.3153 15.236 18.3153C13.9668 18.3153 12.9344 17.2826 12.9344 16.0138C12.9344 14.7446 13.9668 13.7122 15.236 13.7122ZM18.0122 8.7803C17.8623 10.1871 16.6822 11.2909 15.236 11.2909C13.6891 11.2909 12.4305 10.0322 12.4303 8.48479C12.4303 6.93735 13.6892 5.67875 15.236 5.67875C16.7834 5.67875 18.042 6.93765 18.042 8.48479C18.042 8.55015 18.0335 8.61303 18.025 8.67595L18.025 8.67597C18.0208 8.70702 18.0166 8.7381 18.0134 8.76949C18.0136 8.77124 18.0132 8.77307 18.0128 8.7749C18.0125 8.77672 18.0121 8.77855 18.0122 8.7803ZM13.6816 9.21969C13.9587 9.8028 14.5485 10.21 15.236 10.21L15.236 10.21C15.9241 10.21 16.5142 9.80282 16.791 9.2194C15.7671 8.98731 14.7052 8.98731 13.6816 9.21969ZM16.9222 8.12533C16.7562 7.34637 16.064 6.76003 15.236 6.76003C14.4085 6.76003 13.7164 7.34638 13.5503 8.12533C14.6596 7.89004 15.8121 7.89004 16.9222 8.12533ZM8.07866 16.4951C8.51506 16.4951 8.94884 16.3919 9.34954 16.1879C10.0171 15.8477 10.5129 15.2678 10.7444 14.5549C11.222 13.0835 10.4141 11.4975 8.9427 11.0193C7.47331 10.5414 5.88531 11.3493 5.40709 12.8207C5.17529 13.5333 5.23492 14.2936 5.57545 14.9614C5.91597 15.629 6.4959 16.1245 7.20849 16.356C7.49377 16.4489 7.78695 16.4951 8.07866 16.4951ZM9.71642 14.2207C9.57379 14.6589 9.2695 15.0155 8.85882 15.2245C8.67263 15.3192 8.47416 15.3738 8.27277 15.3969C8.36659 14.3394 8.69601 13.3266 9.24029 12.4208C9.72054 12.8642 9.93126 13.5599 9.71642 14.2207ZM6.53856 14.4706C6.32956 14.0603 6.29273 13.5929 6.43509 13.1547C6.67156 12.4266 7.34971 11.9624 8.07688 11.9624C8.12549 11.9624 8.17471 11.9678 8.22386 11.9731H8.22387H8.22388H8.22388L8.25197 11.9762C7.68228 12.9586 7.32919 14.045 7.21111 15.1789C6.92554 15.014 6.69172 14.7717 6.53856 14.4706ZM8.03921 22.5442C7.922 21.8039 8.1003 21.0623 8.54108 20.4558C8.9813 19.8493 9.63139 19.4509 10.3724 19.3343C11.1101 19.2179 11.8543 19.3951 12.4602 19.8356C13.5718 20.6435 13.9106 22.1198 13.3356 23.3174C13.3354 23.3178 13.3353 23.3183 13.3352 23.3188C13.3352 23.3195 13.3352 23.3202 13.335 23.3209C13.3122 23.3884 13.2745 23.4454 13.231 23.4966C13.216 23.5229 13.2017 23.5494 13.1875 23.576C13.1549 23.6367 13.1224 23.6973 13.0807 23.7547C12.5326 24.5093 11.6756 24.9101 10.8069 24.9104C10.2353 24.9104 9.65853 24.7365 9.16133 24.3755C8.55482 23.9347 8.15642 23.2843 8.03921 22.5442ZM9.10665 22.3752C9.17856 22.8304 9.42379 23.2302 9.79647 23.5009C10.1691 23.7715 10.6231 23.8803 11.0805 23.809C11.4138 23.7563 11.7163 23.609 11.9612 23.3883C10.9224 22.9283 9.99761 22.256 9.23526 21.406C9.10051 21.7076 9.05345 22.0414 9.10665 22.3752ZM11.8245 20.7094C11.5269 20.4929 11.1758 20.3797 10.8143 20.3797C10.7234 20.3797 10.6322 20.3871 10.541 20.4011C10.3419 20.4327 10.1563 20.5028 9.98476 20.5967C10.6798 21.3937 11.5324 22.014 12.5 22.4255C12.6192 21.7906 12.381 21.114 11.8245 20.7094ZM17.1314 23.3082C17.1325 23.312 17.1317 23.3161 17.1328 23.3199C17.1571 23.3915 17.198 23.4508 17.2454 23.504C17.261 23.5311 17.2757 23.5585 17.2905 23.5859C17.3211 23.6429 17.3518 23.7 17.3909 23.754C17.9393 24.5087 18.7963 24.9097 19.6647 24.9097C20.2367 24.9097 20.8132 24.7358 21.3103 24.3751C22.5617 23.4658 22.8405 21.7073 21.9309 20.4557C21.0216 19.2038 19.2639 18.9258 18.0115 19.8351C16.9025 20.6404 16.562 22.1122 17.1314 23.3082ZM20.6748 23.5002C20.0049 23.9866 19.1005 23.9185 18.5083 23.3865C19.5481 22.9259 20.4732 22.2528 21.2354 21.4016C21.5608 22.13 21.3454 23.0133 20.6748 23.5002ZM18.6472 20.7091C19.2025 20.306 19.9175 20.2882 20.4837 20.5951C19.7897 21.3919 18.9377 22.0119 17.9714 22.424C17.8527 21.7891 18.0909 21.113 18.6472 20.7091ZM22.3928 16.4948C21.9559 16.4948 21.5227 16.3916 21.1219 16.1876C20.4543 15.847 19.9591 15.2675 19.7274 14.5546C19.4956 13.842 19.5552 13.0814 19.8957 12.4138C20.2363 11.7459 20.8158 11.2507 21.5288 11.0189C22.2413 10.7871 23.0019 10.8474 23.6701 11.1876C24.3377 11.5278 24.8326 12.1077 25.0644 12.8206C25.2962 13.5332 25.2365 14.2935 24.896 14.9614C24.5555 15.629 23.9756 16.1242 23.263 16.356C22.9777 16.4486 22.6842 16.4948 22.3928 16.4948ZM24.0364 13.1544C23.8946 12.7163 23.5901 12.3597 23.1794 12.1507C22.9327 12.025 22.6664 11.9616 22.3975 11.9616C22.3463 11.9616 22.2949 11.9672 22.2436 11.9729C22.2343 11.9739 22.225 11.9749 22.2157 11.9759C22.7856 12.9589 23.1387 14.0459 23.2565 15.1809C23.5442 15.0161 23.7792 14.7726 23.9329 14.4704C24.1419 14.0602 24.179 13.5929 24.0364 13.1544ZM21.2289 12.4231C21.081 12.5596 20.9532 12.7192 20.8591 12.9042C20.6501 13.3149 20.6133 13.7822 20.7556 14.2207C20.8974 14.6588 21.202 15.0154 21.6127 15.2244C21.7977 15.3186 21.9947 15.3726 22.1949 15.3963C22.1008 14.3397 21.7723 13.3278 21.2289 12.4231Z" fill="white"/>
</svg>
