<svg width="32" height="32" viewBox="0 0 32 32" fill="none" xmlns="http://www.w3.org/2000/svg">
<path d="M27.8298 14.0656C27.1416 9.84753 24.2559 6.36636 20.3817 4.8398C20.3384 4.81462 20.2919 4.79878 20.2413 4.7884C18.9202 4.28684 17.4947 4 16.0001 4C13.179 4 10.5874 4.98465 8.53609 6.6202C8.49689 6.64149 8.46236 6.66745 8.42991 6.69964C5.72947 8.90188 4 12.2518 4 15.9999C4 16.6024 4.05919 17.1901 4.14538 17.7693C4.1433 17.8257 4.15239 17.8802 4.17082 17.9355C4.85927 22.153 7.7448 25.6334 11.6182 27.1599C11.6619 27.1854 11.7086 27.2012 11.7595 27.2119C13.0801 27.7129 14.5058 28 16.0002 28C18.8156 28 21.4023 27.0187 23.4509 25.3894C23.4769 25.3765 23.4961 25.3559 23.5197 25.338C26.2482 23.1363 28 19.7708 28 15.9999C28 15.3969 27.9408 14.8088 27.8544 14.2294C27.8562 14.1738 27.8476 14.1201 27.8294 14.0656L27.8298 14.0656ZM26.8454 13.9714L20.626 17.5622V5.98907C23.815 7.46884 26.1822 10.4197 26.8454 13.9714V13.9714ZM12.3347 18.1162V13.8836L16.0003 11.7673L19.6662 13.8838V18.1165L16.0006 20.2328L12.3347 18.1162ZM19.6665 5.59869V12.7749L9.64445 6.98888C11.4438 5.71553 13.6338 4.95983 16.0009 4.95983C17.2873 4.95983 18.5176 5.19243 19.6666 5.59871L19.6665 5.59869ZM8.827 7.62542L15.0407 11.2129L5.01198 17.0028C4.98186 16.6718 4.96109 16.3382 4.96109 15.9997C4.96109 12.651 6.46526 9.65154 8.82716 7.62522L8.827 7.62542ZM5.15593 18.0282L11.3751 14.4376V26.0101C8.18607 24.5303 5.81892 21.5797 5.15593 18.0284V18.0282ZM12.3349 26.4007V19.2245L15.7643 21.2042L22.3572 25.0105C20.5579 26.2838 18.3679 27.0395 16.0007 27.0395C14.7144 27.0395 13.4839 26.8069 12.3349 26.4007ZM23.175 24.3739L16.9613 20.7865L26.9907 14.9963C27.0206 15.3273 27.0413 15.6611 27.0413 15.9997C27.0413 19.3483 25.5372 22.3478 23.1753 24.3741L23.175 24.3739Z" fill="white"/>
</svg>
