<svg width="131" height="105" viewBox="0 0 131 105" fill="none" xmlns="http://www.w3.org/2000/svg">
<path fill-rule="evenodd" clip-rule="evenodd" d="M65.0363 86.9061C46.1645 86.9061 30.5 71.452 30.5 52.4538C30.5 31.6066 48.0278 17.9994 64.9538 18C83.9517 18 99.4077 33.4557 99.4077 52.4538C99.4077 71.2498 84.013 86.9061 65.0363 86.9061ZM41.1853 63.5531H34.2942C35.1023 65.7804 36.1518 67.8912 37.4023 69.8616H43.3225C42.4577 67.8596 41.7371 65.7456 41.1853 63.5531ZM97.5382 51.5304C97.3851 46.0513 95.8758 40.9077 93.3309 36.4215L93.3309 36.4209H88.1892C88.1886 37.1009 88.0933 37.7493 87.9188 38.3584C89.2748 42.5214 90.0005 46.9469 90.0862 51.5304H97.5382ZM78.5652 63.5531C78.2606 65.7508 77.8646 67.8649 77.3875 69.8616H84.6611C85.5575 67.8795 86.2916 65.7572 86.8621 63.5531H78.5652ZM54.6694 63.5531C54.9463 65.7534 55.3043 67.8726 55.7403 69.8616H75.4888C75.9801 67.8769 76.3838 65.7572 76.6974 63.5531H54.6694ZM43.2399 53.378C43.2991 56.539 43.6546 59.6471 44.3171 62.6304H51.3899C51.0145 59.6387 50.8091 56.535 50.7724 53.378H43.2399ZM77.4542 51.5314C77.4181 47.8481 77.149 44.2526 76.6429 40.825C74.5958 39.6596 72.9306 38.0368 71.7606 36.4219H55.4566C54.5519 41.0322 54.0548 46.2294 54.002 51.5307L77.4542 51.5314ZM77.9758 62.6299C78.3905 59.6435 78.6133 56.5372 78.65 53.3775H52.619C52.6569 56.5372 52.8643 59.6448 53.2494 62.6299H77.9758ZM90.0809 53.3775H80.4961C80.46 56.5334 80.2405 59.6371 79.8368 62.6299H88.8613C89.6121 59.6479 90.0133 56.541 90.0809 53.3775ZM86.6405 40.6432C86.6314 40.6549 86.6224 40.6665 86.6121 40.6768C84.4807 42.8803 81.1754 42.6845 78.6274 41.7444C79.0408 44.9008 79.2681 48.179 79.3003 51.5306H88.2393C88.1659 47.7541 87.6404 44.094 86.6655 40.6131C86.6565 40.6227 86.6485 40.633 86.6405 40.6432ZM52.1568 51.5301C52.2076 46.2449 52.6951 41.0581 53.5792 36.4212H44.6681C42.8039 41.022 41.7801 46.2241 41.6719 51.5301H52.1568ZM97.5387 53.377H91.9283C91.8626 56.534 91.471 59.6372 90.7544 62.6294H95.9276C96.8909 59.7041 97.4486 56.5985 97.5387 53.377ZM74.8471 37.1798C78.5986 40.8083 83.2727 41.4722 85.2849 39.3923C87.4201 37.1849 86.2483 32.4419 82.7254 29.0349C79.0151 25.4476 74.3995 24.6382 72.2876 26.8224C70.095 29.0897 71.3229 33.7715 74.8471 37.1798ZM71.0021 20.9596C71.8315 21.8288 72.6164 22.8778 73.3383 24.1025C74.4399 23.7599 75.2094 23.7633 76.1109 23.8341C74.4877 22.5881 72.7775 21.6261 71.0021 20.9596ZM54.435 35.4979H71.1415C68.8446 31.7599 68.9425 28.1316 70.5555 26.0201H57.7815C56.4446 28.5765 55.2953 31.8443 54.435 35.4979ZM59.7941 20.6634C57.1411 21.5036 54.619 22.9962 52.3086 25.098H56.9654C57.8991 23.3201 58.8083 21.8231 59.7941 20.6634ZM55.7187 26.0207H52.4103C50.1244 28.5275 47.984 31.8977 46.5017 35.4985H52.5377C53.3626 31.8669 54.4309 28.6866 55.7187 26.0207ZM32.3703 51.5302H39.8262H39.8264C39.9294 46.2508 40.9145 41.0679 42.6956 36.4213H36.5771C34.0329 40.908 32.5236 46.0505 32.3703 51.5302ZM42.4366 62.6301C41.7992 59.6372 41.4514 56.5335 41.3941 53.3776H32.3703C32.4604 56.5991 33.018 59.7048 33.982 62.6301H42.4366ZM43.0973 63.5527C43.6691 65.7182 44.4527 67.9031 45.3426 69.8612H53.8552C53.4302 67.8618 53.078 65.7471 52.8082 63.5527H43.0973ZM58.9577 83.7164C56.4901 80.9701 54.3864 76.5419 52.9112 70.7846H47.0393C49.9473 77.1098 54.1593 81.6153 58.9577 83.7164ZM76.28 70.7846H54.8224C57.1327 79.4807 60.8047 85.0526 65.2865 85.0526C69.6012 85.0526 73.7695 79.5348 76.28 70.7846ZM85.7775 70.7846H78.2005C76.5463 76.7859 74.1572 81.3365 71.3639 84.0487C77.1844 82.1125 82.3036 77.4543 85.7775 70.7846ZM88.7723 63.5527C88.2282 65.7479 87.5192 67.8605 86.6673 69.8612H92.5045C93.7544 67.8895 94.8039 65.7794 95.6127 63.5527H88.7723ZM88.14 35.498H92.7962C90.5258 31.784 87.5302 28.5644 84.0131 26.0202H81.9327C84.2398 27.5894 87.6526 30.9848 88.14 35.498ZM80.3582 25.0981H82.6667C80.8676 23.9295 78.9474 22.9332 76.9281 22.1335C78.0486 22.9668 79.1297 23.9223 80.1625 24.9976C80.2269 25.0298 80.2939 25.0646 80.3582 25.0981ZM71.6031 24.9799C71.625 24.9642 71.6468 24.9485 71.6685 24.9326C69.7066 21.6564 67.3484 19.8457 64.9537 19.8464C62.5939 19.8464 61.0323 21.534 59.0626 25.0981H71.4451C71.4963 25.0565 71.5497 25.0182 71.6031 24.9799ZM47.2406 25.0981H49.6406C50.654 24.051 51.8949 22.9435 52.9915 22.1283C50.9682 22.9294 49.0437 23.9268 47.2406 25.0981ZM49.9355 26.0208H45.8942C42.3771 28.5644 39.3817 31.7839 37.1118 35.4987H44.5072C45.9201 31.8663 47.7422 28.684 49.9355 26.0208ZM45.0075 70.784H38.0043C41.9876 76.6244 47.82 81.1008 54.6502 83.3816C50.7564 80.616 47.4074 76.3146 45.0075 70.784ZM87.8591 70.784C85.6601 75.283 82.7572 78.9681 79.3941 81.6778C84.4399 79.1742 88.7509 75.406 91.9048 70.784H87.8591ZM75.6282 30.8285C76.0725 30.3694 76.7055 30.1176 77.4145 30.1176C78.4217 30.1176 79.5021 30.6032 80.3759 31.4486C81.9251 32.9457 82.2664 35.0197 81.1544 36.171C80.7101 36.6302 80.0771 36.8819 79.3688 36.8819C78.3616 36.8819 77.2818 36.3977 76.4074 35.5509C74.8581 34.0532 74.5162 31.9786 75.6282 30.8285ZM79.3688 35.0366C79.5117 35.0366 79.7081 35.0109 79.8266 34.8879C80.1132 34.593 79.9689 33.6233 79.0913 32.7759C78.4724 32.1777 77.8182 31.9646 77.4138 31.9646C77.2702 31.9646 77.0738 31.9903 76.9554 32.1133C76.6714 32.4075 76.8156 33.3779 77.6914 34.2253C78.3102 34.8235 78.9638 35.0366 79.3688 35.0366Z" fill="#F0F0F0"/>
</svg>
