<svg width="32" height="32" viewBox="0 0 32 32" fill="none" xmlns="http://www.w3.org/2000/svg">
<path fill-rule="evenodd" clip-rule="evenodd" d="M16.0003 2.59821C15.7622 2.59746 15.5333 2.69169 15.3651 2.85996C15.1966 3.02848 15.1023 3.25708 15.1033 3.49539V6.04757C15.1041 6.28463 15.1991 6.51173 15.3673 6.67875C15.5356 6.84553 15.7632 6.93901 16.0003 6.93801C16.4914 6.93627 16.889 6.53866 16.8907 6.04757V3.49539C16.8917 3.25833 16.7982 3.03047 16.6312 2.86221C16.4644 2.69419 16.2373 2.59921 16.0003 2.59821ZM16 8.15167C11.6745 8.15167 8.1448 11.6746 8.1448 15.9999C8.1448 20.3255 11.6742 23.8551 16 23.8551C20.3259 23.8551 23.8483 20.3257 23.8483 15.9999C23.8483 11.6741 20.3254 8.15167 16 8.15167ZM16 9.93906C19.3599 9.93906 22.0612 12.6403 22.0612 16.0002C22.0612 19.3601 19.3599 22.0678 16 22.0678C12.6402 22.0678 9.93244 19.3601 9.93244 16.0002C9.93244 12.6404 12.6402 9.93906 16 9.93906ZM22.0225 4.3046C22.2513 4.24278 22.4954 4.27444 22.7008 4.3926C22.9072 4.51176 23.0572 4.70846 23.1178 4.9388C23.1786 5.16913 23.1447 5.41419 23.0241 5.61934H23.0238L21.751 7.82875C21.5032 8.25454 20.9573 8.39912 20.531 8.15183C20.3253 8.03391 20.1753 7.83897 20.1132 7.61013C20.0514 7.38128 20.083 7.13723 20.2012 6.93182L21.4808 4.72241C21.5987 4.51674 21.7937 4.36643 22.0225 4.3046ZM26.3876 8.97593L24.1717 10.2488C23.7459 10.4968 23.6013 11.0427 23.8486 11.469C23.9665 11.6744 24.1615 11.8247 24.3903 11.8866C24.6192 11.9484 24.8632 11.9167 25.0686 11.7986L27.278 10.519C27.4837 10.4011 27.634 10.2061 27.6958 9.97727C27.7577 9.74843 27.726 9.50438 27.6078 9.29896C27.3598 8.87318 26.8139 8.7286 26.3878 8.97564L26.3876 8.97593ZM25.0621 15.9998C25.0636 15.509 25.4615 15.1114 25.9523 15.1097L28.5047 15.1096C28.7418 15.1086 28.9694 15.2019 29.1377 15.3689C29.3059 15.5359 29.4009 15.763 29.4017 15.9998C29.4027 16.2382 29.3084 16.4668 29.1402 16.6353C28.9716 16.8035 28.7431 16.8978 28.5047 16.897H25.9523C25.7152 16.896 25.4884 16.801 25.3214 16.6328C25.1543 16.4648 25.0611 16.2369 25.0621 15.9998ZM25.0686 20.2077C24.6423 19.9605 24.0967 20.105 23.8486 20.5308C23.6013 20.9571 23.7459 21.503 24.1717 21.7511L26.3876 23.0307V23.0304C26.5933 23.1486 26.8373 23.1802 27.0662 23.1184C27.295 23.0563 27.49 22.9063 27.6079 22.7006C27.726 22.4949 27.7577 22.2509 27.6959 22.022C27.634 21.7932 27.4837 21.5985 27.2781 21.4803L25.0686 20.2077ZM20.1132 24.3905C20.1751 24.1616 20.3254 23.9667 20.531 23.8488C20.7365 23.7306 20.9805 23.6989 21.2094 23.761C21.4382 23.8228 21.6332 23.9732 21.7511 24.1786L23.0239 26.388C23.2712 26.8143 23.1266 27.3602 22.7008 27.6082C22.4954 27.7264 22.2514 27.7581 22.0225 27.696C21.7937 27.6342 21.5987 27.4838 21.4808 27.2782L20.2012 25.0688C20.0831 24.8634 20.0514 24.6193 20.1132 24.3905ZM16.0003 25.0616C15.7622 25.0606 15.5333 25.1548 15.3651 25.3233C15.1966 25.4916 15.1023 25.7205 15.1033 25.9585V28.5109C15.1041 28.748 15.1991 28.9749 15.3673 29.1419C15.5356 29.3089 15.7632 29.4021 16.0003 29.4011C16.4914 29.3997 16.889 29.002 16.8907 28.511V25.9585C16.8917 25.7215 16.7982 25.4939 16.6312 25.3256C16.4644 25.1573 16.2373 25.0623 16.0003 25.0616ZM10.7909 23.7605C11.0198 23.6987 11.2638 23.7303 11.4692 23.8485L11.4694 23.8485C11.895 24.0966 12.0396 24.6422 11.7925 25.0685L10.5197 27.2779C10.4015 27.4836 10.2068 27.6339 9.97799 27.6957C9.74914 27.7575 9.50509 27.7261 9.29943 27.608C9.09401 27.4898 8.94369 27.2951 8.88187 27.0663C8.82005 26.8374 8.85146 26.5934 8.96962 26.3877L10.2492 24.1783C10.3671 23.9729 10.5621 23.8225 10.7909 23.7605ZM6.93164 20.208L4.72223 21.4808C4.51682 21.5987 4.3665 21.7937 4.30468 22.0225C4.24285 22.2514 4.27426 22.4954 4.39243 22.7008C4.51059 22.9065 4.70528 23.0568 4.93412 23.1186C5.16297 23.1807 5.40702 23.149 5.61269 23.0309L7.8221 21.7513C8.02776 21.6334 8.17783 21.4384 8.23966 21.2096C8.30173 20.9807 8.27007 20.7367 8.15191 20.5313C7.90387 20.1055 7.35796 19.9609 6.93166 20.2082L6.93164 20.208ZM2.59826 16.0001C2.59998 15.509 2.9976 15.1114 3.4887 15.1096L6.04113 15.1096C6.2782 15.1089 6.5058 15.2021 6.67407 15.3691C6.84233 15.5362 6.93731 15.763 6.93806 16.0001C6.93905 16.2381 6.84482 16.467 6.67631 16.6353C6.50804 16.8038 6.2792 16.898 6.04113 16.897H3.4887C3.25163 16.8963 3.02478 16.8013 2.85776 16.633C2.69074 16.4648 2.59751 16.2372 2.59826 16.0001ZM4.93352 8.88365C4.70542 8.94523 4.51098 9.09455 4.39257 9.29896C4.2744 9.50463 4.24299 9.74867 4.30482 9.97753C4.36664 10.2064 4.51696 10.4013 4.72237 10.5192L6.93178 11.7988V11.7986C7.13745 11.9167 7.38125 11.9484 7.61009 11.8868C7.83894 11.825 8.03388 11.6747 8.15204 11.469C8.2702 11.2636 8.30186 11.0196 8.23979 10.7907C8.17797 10.5619 8.0279 10.3669 7.82223 10.249L5.61282 8.97617C5.40767 8.85627 5.16314 8.82283 4.93352 8.88365ZM8.87843 4.93704C8.94026 4.70671 9.09182 4.51052 9.29923 4.3926L9.29923 4.39233C9.5049 4.27417 9.74896 4.24251 9.9778 4.30433C10.2066 4.36616 10.4016 4.51647 10.5195 4.72214L11.7923 6.9318C12.0394 7.35784 11.8948 7.90376 11.469 8.15179C11.043 8.39884 10.4971 8.25425 10.249 7.82872L8.96942 5.61931C8.84926 5.41317 8.81636 5.16738 8.87843 4.93704Z" fill="white"/>
</svg>
