<svg width="281" height="120" viewBox="0 0 281 120" fill="none" xmlns="http://www.w3.org/2000/svg">
<path d="M52.5384 65.1329L56.3724 76.3919C58.4468 82.4806 60.2987 87.3489 60.5402 87.3489C60.5441 87.3487 60.5479 87.3472 60.5508 87.3444C60.8161 87.1101 68.3203 65.3173 68.3203 65.3173H82.8645L65.3177 116.445H55.2089C55.2089 116.445 44.4191 85.2816 44.4633 85.1635L33.2004 116.052H23.1932L5.86763 65.1329L20.341 65.1422C20.341 65.1422 28.2693 87.6151 28.375 87.6151L28.3759 87.6142L36.2869 65.132L52.5384 65.1329ZM0.926421 61.5917L2.5188 66.272L19.8444 117.192L20.6603 119.59H35.6763L36.5244 117.264L44.3448 95.8171C45.0187 97.7778 45.7471 99.8911 46.4754 102.002C48.2696 107.203 50.0666 112.403 51.8663 117.601L52.6906 119.982H67.8441L68.6639 117.594L86.2106 66.4666L87.8189 61.7797H65.7971L64.9755 64.1658C63.4678 68.5436 61.9502 72.9179 60.4225 77.2887C60.1864 76.6099 59.9524 75.9304 59.7207 75.2501L55.8873 63.9916L55.071 61.5944H33.7819L32.9501 63.9584L28.3277 77.0946C26.7723 72.7199 25.2223 68.3434 23.6775 63.965L22.8452 61.6063L20.3437 61.6045L5.87028 61.5953L0.926421 61.5917ZM276.533 64.9348L276.5 78.3358C276.5 78.3358 262.065 78.2881 254.727 78.2881C252.285 78.2881 250.628 78.2943 250.55 78.308C249.287 78.5384 248.481 81.2279 248.839 82.4077C249.015 83.0051 250.34 84.9548 251.772 86.7461C253.199 88.538 255.548 91.4698 256.98 93.2594C260.659 97.8499 261.163 98.756 261.504 101.392C262.057 105.674 260.032 110.307 256.274 113.362C252.506 116.427 252.671 116.449 224.708 116.449H223.48C206.472 116.444 197.478 116.303 196.168 116.012C193.842 115.486 190.135 112.461 180.341 103.064C176.818 99.6873 173.571 96.7307 173.404 96.7298C173.399 96.7298 173.398 96.7329 173.398 96.7378L173.282 116.45L157.407 116.381L157.309 65.5357H192.713C203.383 65.9209 210.604 76.5511 209.167 83.3301C208.842 84.8685 208.01 87.0981 207.319 88.2828C205.899 90.7149 202.286 93.8369 199.354 95.1772C198.271 95.6668 197.386 96.2372 197.386 96.4406C197.386 97.1968 200.951 100.707 202.286 101.265C203.427 101.742 206.748 101.848 221.394 101.848L226.085 101.849C240.807 101.849 240.066 101.743 241.203 99.3101C242 97.6169 241.394 96.6042 235.792 90.2935C228.694 83.231 229.437 79.8482 229.388 77.3497C229.287 74.3555 231.645 64.9379 243.898 64.9379L276.533 64.9348ZM181.428 88.4243C188.225 88.4243 189.605 88.3191 191.051 87.6907C195.933 85.5677 196.194 79.2981 191.511 76.5157C190.485 75.905 189.167 75.8046 181.8 75.7644L173.275 75.7193C173.345 75.7852 173.248 87.9109 173.248 87.9109C173.248 87.9109 175.383 88.4243 181.428 88.4243ZM280.079 61.3972H243.898C236.808 61.3972 232.615 64.195 230.347 66.5431C226.654 70.3607 225.787 75.1679 225.853 77.4342C225.857 77.623 225.855 77.8167 225.852 78.0188C225.82 81.7019 226.362 85.8715 233.219 92.7203C234.573 94.2464 236.84 96.8054 237.699 98.0772C235.825 98.3076 231.075 98.3076 226.084 98.3076H223.966L221.395 98.3067C212.593 98.3067 205.171 98.2811 203.65 97.9813C203.437 97.8433 203.139 97.6036 202.811 97.3188C205.852 95.447 208.927 92.5435 210.374 90.0618C211.253 88.5525 212.222 85.9745 212.629 84.0624C213.531 79.8062 212.043 74.6717 208.649 70.324C204.688 65.2514 198.927 62.2166 192.842 61.9972L192.778 61.9946H153.765L153.773 65.5402L153.871 116.385L153.878 119.9L157.393 119.915L173.267 119.985L176.799 120L176.82 116.468L176.888 104.659C177.212 104.966 177.547 105.286 177.892 105.616C188.606 115.893 192.201 118.741 195.387 119.461C196.262 119.656 197.71 119.979 223.477 119.986H224.705C238.656 119.986 245.658 119.986 249.823 119.584C254.594 119.123 256.129 118.041 258.428 116.167L258.505 116.105C263.23 112.263 265.723 106.452 265.012 100.937C264.549 97.3511 263.6 95.8613 259.741 91.0462L258.593 89.6134C257.24 87.9228 255.887 86.2313 254.535 84.5391C253.658 83.4407 252.966 82.4656 252.552 81.8266C253.098 81.8253 253.808 81.8244 254.727 81.8244C261.977 81.8244 276.345 81.8717 276.489 81.8726L280.03 81.8837L280.039 78.3425L280.073 64.9405L280.079 61.3972ZM176.808 84.7575L176.824 81.8576C176.829 80.9731 176.833 80.087 176.834 79.2751L181.781 79.3012C184.624 79.3162 188.902 79.3401 189.736 79.5767C190.8 80.2227 191.395 81.2221 191.33 82.2569C191.295 82.8158 191.028 83.8435 189.64 84.4458C188.866 84.7823 187.633 84.8867 181.429 84.8867C179.46 84.8867 177.942 84.8296 176.808 84.7575ZM125.144 64.7261L142.961 115.987L128.443 116.052L126.033 108.354L100.076 108.145L97.7849 115.853L83.4132 115.703L101.004 64.7477L125.144 64.7261ZM113.47 72.2414C113.433 72.3886 111.195 78.5295 108.949 84.6691C106.685 90.86 104.414 97.0509 104.382 97.0986C104.442 97.0809 112.482 97.0632 117.634 97.0632C120.046 97.0632 121.824 97.0677 121.857 97.0756L121.858 97.0778V97.0765L121.857 97.0756C121.767 96.843 113.496 72.5407 113.47 72.2414ZM127.659 61.1858L125.142 61.1884L101.002 61.211L98.4827 61.2136L97.6607 63.5954L80.0697 114.55L78.4676 119.19L83.377 119.241L97.7487 119.392L100.416 119.42L101.177 116.863L102.709 111.706L123.428 111.872L125.068 117.112L125.849 119.605L128.461 119.594L142.978 119.528L147.928 119.504L146.302 114.829L128.485 63.5684L127.659 61.1858ZM109.474 93.5305C110.144 91.7042 111.047 89.2366 112.272 85.8852L113.33 82.9909L114.289 85.8193C114.575 86.6621 115.83 90.3612 116.907 93.5265C113.706 93.5265 111.296 93.5269 109.474 93.5305ZM131.149 3.54295V16.19H105.82V54.8702H90.7185V16.1595L61.1526 16.2431C57.5884 16.2431 57.1108 19.0821 57.1108 20.1699C57.1108 21.5058 57.982 22.8408 62.7667 28.899C65.8709 32.8342 68.7232 36.7614 69.099 37.6193C71.1509 42.3425 68.4976 49.7004 63.6643 52.6897C60.2196 54.818 60.8081 54.8706 35.227 54.8706H3.53764V40.6621H46.8296L48.1075 39.7733C48.9698 39.1723 49.4695 38.3454 49.6597 37.2129C49.925 35.5856 49.7879 35.3734 44.4417 29.351C38.1225 22.231 37.4548 20.9314 37.782 16.3859C38.1535 11.1989 42.779 3.66323 50.8625 3.66323L131.149 3.54295ZM134.687 0L131.144 0.00574867L50.8567 0.125144C46.2322 0.125144 41.937 2.12391 38.766 5.75133C36.195 8.69243 34.5075 12.5746 34.2528 16.1334C33.8225 22.1081 35.1978 24.2674 41.7951 31.6999C43.7098 33.8566 45.5304 35.908 46.138 36.7787C46.1315 36.8026 46.1236 36.8261 46.1141 36.849C46.1074 36.8547 46.0973 36.8618 46.0831 36.872L45.7196 37.1245H0V58.4083H35.227C47.8396 58.4083 54.0649 58.3968 57.7326 58.127C61.9291 57.8201 63.2681 57.1002 65.274 55.8541L65.5243 55.6984C71.831 51.7982 75.0812 42.5088 72.344 36.2091C71.4993 34.282 66.1517 27.4773 65.5446 26.7079C63.866 24.5818 61.0951 21.0742 60.6565 20.0589C60.6671 19.974 60.6879 19.8851 60.71 19.8241C60.7829 19.8055 60.9227 19.7803 61.1526 19.7803L87.1808 19.7064V58.4074H109.357V19.7272H134.687V0ZM172.301 3.95376L190.069 55.3469L175.578 55.2673L173.225 47.5685L147.383 47.4535L145.074 54.8698H130.318L147.891 3.95376H172.301ZM151.601 36.5094L169.202 36.4873C169.262 36.4873 160.648 11.1931 160.591 11.1754C160.528 11.1732 151.403 36.5094 151.601 36.5094ZM174.822 0.416115H145.371L144.549 2.80005L126.975 53.7165L125.356 58.4078H147.681L148.455 55.9213L149.985 51.0035L170.606 51.0951L172.198 56.3012L172.959 58.7903L175.563 58.8049L190.054 58.885L195.05 58.9124L193.418 54.1914L175.65 2.79739L174.822 0.416115ZM156.516 32.966C157.832 29.2306 159.161 25.4995 160.502 21.7729C161.773 25.499 163.038 29.2268 164.299 32.9563L156.516 32.966ZM222.203 3.95376C233.666 3.95376 241.62 4.11738 243.151 4.3827C246.688 4.99825 249.885 6.88558 252.281 9.78734C254.789 12.82 255.364 14.2713 255.691 18.4276C256.16 24.2961 253.37 29.3594 247.864 32.6441C246.259 33.6036 244.61 34.5367 244.198 34.7224C243.566 35.0094 243.651 35.2845 244.782 36.6111C245.511 37.465 246.776 38.681 247.59 39.3125L249.075 40.4667L276.527 40.8602L276.797 54.8698H259.966C246.948 54.8698 242.783 54.7499 241.561 54.3395C239.735 53.7205 235.34 49.9971 226.406 41.4979L220.03 35.4304L220.097 54.8698H203.715V3.95376H222.203ZM219.79 26.8467H228.488C236.952 26.8467 237.217 26.8198 238.425 25.9141C240.583 24.2957 241.347 22.6281 241.118 20.0677C240.885 17.4273 239.866 16.0529 237.315 14.9474C235.878 14.3191 234.493 14.2178 227.71 14.2178H219.79V26.8467ZM222.203 0.416115H200.182V58.4074H223.649L223.638 54.8578L223.598 43.7067L223.97 44.0605C235.018 54.5721 238.278 56.9609 240.428 57.6893C242.078 58.2464 244.842 58.4074 259.968 58.4074H280.405L280.336 54.8021L280.066 40.7926L280.002 37.373L276.582 37.3239L250.314 36.9476L249.764 36.5195C249.589 36.3825 249.376 36.202 249.15 35.9977L249.683 35.6807C256.317 31.7216 259.794 25.33 259.221 18.1459C258.839 13.2998 257.974 11.1166 255.011 7.53297C252.099 4.00904 248.103 1.65252 243.758 0.897677C241.342 0.478909 229.217 0.416115 222.203 0.416115ZM223.328 17.755H227.71C233.912 17.755 235.141 17.858 235.899 18.1888C237.336 18.811 237.482 19.1135 237.594 20.3804C237.707 21.6402 237.551 22.1465 236.302 23.0827L236.203 23.1561C235.379 23.3091 232.318 23.3091 228.488 23.3091H223.328V17.755Z" fill="#FFDE6F"/>
</svg>
