<svg width="32" height="32" viewBox="0 0 32 32" fill="none" xmlns="http://www.w3.org/2000/svg">
<path fill-rule="evenodd" clip-rule="evenodd" d="M25.0284 9.80027C22.9552 9.80027 21.2672 8.11383 21.2672 6.03905C21.2672 3.96427 22.9552 2.27783 25.0284 2.27783C27.1015 2.27783 28.7896 3.96427 28.7896 6.03905C28.7896 8.11383 27.1015 9.80027 25.0284 9.80027ZM25.0284 8.29591C26.2728 8.29591 27.2852 7.28314 27.2852 6.03905C27.2852 4.79489 26.2727 3.78218 25.0286 3.78218C23.7842 3.78218 22.7718 4.79489 22.7718 6.03905C22.7718 7.28321 23.7843 8.29591 25.0284 8.29591ZM6.97447 19.9546C9.878 19.9546 12.24 17.5926 12.24 14.689C12.24 11.7855 9.878 9.42347 6.97447 9.42347C4.07068 9.42347 1.70863 11.7855 1.70863 14.689C1.70863 17.5926 4.07068 19.9546 6.97447 19.9546ZM6.97447 10.9277C9.04764 10.9277 10.7357 12.6141 10.7357 14.6889C10.7357 16.7637 9.04764 18.4501 6.97447 18.4501C4.9013 18.4501 3.21325 16.7637 3.21325 14.6889C3.21325 12.6141 4.9013 10.9277 6.97447 10.9277ZM2.22325 24.5057L29.304 15.4788C29.6996 15.3478 30.1239 15.563 30.2545 15.9557C30.3854 16.3501 30.1732 16.7756 29.7791 16.9081L2.69837 25.9351C2.61861 25.9605 2.53885 25.9726 2.46067 25.9726C2.14638 25.9726 1.85306 25.7724 1.74785 25.4581C1.61693 25.0637 1.82918 24.6382 2.22325 24.5057ZM15.4704 25.4399C15.7637 25.1466 16.2407 25.1466 16.534 25.4399L19.5447 28.449C19.7598 28.6641 19.8243 28.9876 19.7071 29.2689C19.5913 29.5501 19.3159 29.7338 19.012 29.7338H12.994C12.6901 29.7338 12.4149 29.5501 12.2989 29.2689C12.1814 28.9876 12.2462 28.6641 12.4613 28.449L15.4704 25.4399ZM16.0015 27.0364L14.8085 28.2294H17.1944L16.0015 27.0364Z" fill="white"/>
</svg>
