<svg width="32" height="32" viewBox="0 0 32 32" fill="none" xmlns="http://www.w3.org/2000/svg">
<path fill-rule="evenodd" clip-rule="evenodd" d="M15.6063 2.42053C19.281 2.42053 22.2679 5.40741 22.2679 9.0821C22.2679 12.7529 19.281 15.7437 15.6063 15.7437C11.9316 15.7437 8.94472 12.7568 8.94472 9.0821C8.94472 5.40741 11.9316 2.42053 15.6063 2.42053ZM15.6064 4.02007C12.8156 4.02007 10.5444 6.291 10.5444 9.0821C10.5444 11.8732 12.8156 14.1444 15.6064 14.1441C18.3972 14.1441 20.6685 11.8732 20.6685 9.0821C20.6685 6.29129 18.3975 4.02007 15.6064 4.02007ZM11.8396 18.747H20.1486V18.7469C24.2832 18.7469 27.6458 22.1138 27.6458 26.2484V28.8113C27.6458 29.2512 27.286 29.611 26.8462 29.611C26.4064 29.611 26.0466 29.2512 26.0466 28.8113V26.2484C26.0466 22.9973 23.3994 20.3504 20.1486 20.3504H11.8396C8.58856 20.3504 5.94169 22.9977 5.94169 26.2484V28.8113C5.94169 29.2512 5.58189 29.611 5.14206 29.611C4.70224 29.611 4.34244 29.2512 4.34244 28.8113V26.2442C4.34244 22.1099 7.70532 18.747 11.8396 18.747Z" fill="white"/>
</svg>
